<?xml version="1.0" standalone="no"?>
<!DOCTYPE svg PUBLIC "-//W3C//DTD SVG 20010904//EN"
 "http://www.w3.org/TR/2001/REC-SVG-20010904/DTD/svg10.dtd">
<svg version="1.0" xmlns="http://www.w3.org/2000/svg"
 width="512.000000pt" height="512.000000pt" viewBox="0 0 512.000000 512.000000"
 preserveAspectRatio="xMidYMid meet">

<g transform="translate(0.000000,512.000000) scale(0.100000,-0.100000)"
fill="#000000" stroke="none">
<path d="M1773 3673 c26 -2 68 -2 95 0 26 2 4 3 -48 3 -52 0 -74 -1 -47 -3z"/>
<path d="M2263 3673 c26 -2 68 -2 95 0 26 2 4 3 -48 3 -52 0 -74 -1 -47 -3z"/>
<path d="M2763 3673 c26 -2 68 -2 95 0 26 2 4 3 -48 3 -52 0 -74 -1 -47 -3z"/>
<path d="M3253 3673 c26 -2 68 -2 95 0 26 2 4 3 -48 3 -52 0 -74 -1 -47 -3z"/>
<path d="M1730 3555 l0 -85 -153 0 c-216 0 -219 -2 -400 -225 -76 -93 -149
-193 -163 -222 l-25 -51 3 -659 3 -658 32 -65 c20 -41 134 -192 309 -410 152
-190 284 -361 293 -380 13 -29 16 -85 19 -333 l3 -297 -165 0 -166 0 0 -85 0
-85 1240 0 1240 0 0 85 0 85 -165 0 -166 0 3 317 3 318 197 355 c148 265 200
369 208 409 13 70 14 1704 0 1784 -13 81 -46 141 -107 197 -101 93 -232 111
-370 54 -8 -4 -13 2 -13 15 0 20 -6 21 -85 21 l-84 0 -3 -682 c-3 -759 0 -718
-71 -772 -70 -54 -173 -34 -224 43 -23 34 -23 38 -23 368 l0 333 47 57 c54 68
87 137 103 221 27 134 -9 222 -103 252 l-47 15 0 83 0 82 -90 0 -90 0 0 -85 0
-85 -160 0 -160 0 0 85 0 85 -90 0 -90 0 0 -85 0 -85 -160 0 -160 0 0 85 0 85
-85 0 -85 0 0 -85z m1900 -117 c18 -13 43 -36 54 -51 21 -28 21 -38 23 -570
l3 -542 -23 -39 c-29 -52 -97 -89 -150 -83 -53 7 -103 44 -127 93 -20 40 -20
58 -18 576 l3 535 29 37 c51 67 143 87 206 44z m-750 -168 c0 -91 -86 -212
-185 -260 l-50 -25 -582 -3 -583 -3 0 -107 0 -107 127 -100 c258 -204 405
-388 508 -635 60 -143 105 -348 105 -477 l0 -73 90 0 90 0 0 43 c-1 130 -41
351 -89 490 -17 49 -18 59 -6 64 8 3 30 -8 49 -25 107 -94 305 -94 413 1 24
21 39 28 47 21 96 -71 155 -94 242 -94 78 0 157 28 210 74 l39 34 36 -33 c58
-52 139 -78 229 -73 44 3 89 12 108 22 l33 17 -3 -223 -3 -223 -189 -335
c-104 -184 -195 -352 -202 -374 -11 -30 -14 -114 -14 -367 l0 -329 -740 0
-740 0 0 303 c0 322 -4 353 -53 441 -13 23 -142 190 -287 371 -145 181 -275
350 -289 375 l-26 45 -3 600 c-1 330 0 610 3 622 7 30 249 334 283 355 25 17
78 18 730 18 l702 0 0 -30z m-160 -713 c0 -267 -1 -275 -23 -317 -25 -48 -89
-90 -137 -90 -48 0 -112 42 -137 90 -22 42 -23 51 -23 300 l0 257 128 6 c70 3
138 10 152 16 14 5 28 10 33 10 4 1 7 -122 7 -272z m-500 -21 c0 -147 -4 -267
-9 -270 -5 -3 -21 15 -36 41 -91 158 -262 348 -434 480 -13 10 35 12 232 13
l247 0 0 -264z"/>
<path d="M990 85 l0 -85 85 0 85 0 0 85 0 85 -85 0 -85 0 0 -85z"/>
<path d="M3960 85 l0 -85 85 0 85 0 0 85 0 85 -85 0 -85 0 0 -85z"/>
</g>
</svg>
